HIERARCHY
ROOT Hips
{
	OFFSET 0.000000 0.000000 0.000000
	CHANNELS 6 Xposition Yposition Zposition Xrotation Yrotation Zrotation
	JOINT LeftUpLeg_virtual
	{
		OFFSET 0.000000 0.000000 0.000000
		CHANNELS 3 Xrotation Yrotation Zrotation
		JOINT LeftUpLeg
		{
			OFFSET 15.427100 -6.655098 0.678600
			CHANNELS 3 Xrotation Yrotation Zrotation
			JOINT LeftLeg
			{
				OFFSET 4.081073 -39.591068 13.024000
				CHANNELS 3 Xrotation Yrotation Zrotation
				JOINT LeftFoot
				{
					OFFSET -4.081074 -37.707932 -15.979700
					CHANNELS 3 Xrotation Yrotation Zrotation
					JOINT LeftToeBase
					{
						OFFSET 5.346399 -15.068900 20.645000
						CHANNELS 3 Xrotation Yrotation Zrotation
						JOINT LeftToe_End
						{
							OFFSET 2.754700 0.931300 11.300900
							CHANNELS 3 Xrotation Yrotation Zrotation
							End Site
							{
								OFFSET 0 0 0
							}
						}
					}
				}
			}
		}
	}
	JOINT RightUpLeg_virtual
	{
		OFFSET 0.000000 0.000000 0.000000
		CHANNELS 3 Xrotation Yrotation Zrotation
		JOINT RightUpLeg
		{
			OFFSET -15.569500 -6.655098 0.678600
			CHANNELS 3 Xrotation Yrotation Zrotation
			JOINT RightLeg
			{
				OFFSET -4.081825 -39.591045 13.023800
				CHANNELS 3 Xrotation Yrotation Zrotation
				JOINT RightFoot
				{
					OFFSET 4.081824 -37.707954 -15.979600
					CHANNELS 3 Xrotation Yrotation Zrotation
					JOINT RightToeBase
					{
						OFFSET -5.346400 -15.068900 20.645000
						CHANNELS 3 Xrotation Yrotation Zrotation
						JOINT RightToe_End
						{
							OFFSET -2.754700 0.931300 11.300900
							CHANNELS 3 Xrotation Yrotation Zrotation
							End Site
							{
								OFFSET 0 0 0
							}
						}
					}
				}
			}
		}
	}
	JOINT Spine_virtual
	{
		OFFSET 0.000000 0.000000 0.000000
		CHANNELS 3 Xrotation Yrotation Zrotation
		JOINT Spine
		{
			OFFSET -0.279200 12.230698 -2.892100
			CHANNELS 3 Xrotation Yrotation Zrotation
			JOINT Spine1
			{
				OFFSET -0.232667 10.192268 -1.242267
				CHANNELS 3 Xrotation Yrotation Zrotation
				JOINT Spine1_split
				{
					OFFSET -0.232667 10.192268 -1.242267
					CHANNELS 3 Xrotation Yrotation Zrotation
					JOINT Spine2
					{
						OFFSET -0.232667 10.192268 -1.242267
						CHANNELS 3 Xrotation Yrotation Zrotation
						JOINT Neck_virtual
						{
							OFFSET 0.000000 0.000000 0.000000
							CHANNELS 3 Xrotation Yrotation Zrotation
							JOINT Neck
							{
								OFFSET -0.418800 17.814194 8.416900
								CHANNELS 3 Xrotation Yrotation Zrotation
								JOINT Head
								{
									OFFSET 0.000000 7.031097 3.806800
									CHANNELS 3 Xrotation Yrotation Zrotation
									JOINT HeadTop_End
									{
										OFFSET 0.000000 24.646606 12.978600
										CHANNELS 3 Xrotation Yrotation Zrotation
										End Site
										{
											OFFSET 0 0 0
										}
									}
								}
							}
						}
						JOINT LeftShoulder_virtual
						{
							OFFSET 0.000000 0.000000 0.000000
							CHANNELS 3 Xrotation Yrotation Zrotation
							JOINT LeftShoulder
							{
								OFFSET 8.476499 7.247704 -3.868750
								CHANNELS 3 Xrotation Yrotation Zrotation
								JOINT LeftShoulder_split
								{
									OFFSET 8.476499 7.247704 -3.868750
									CHANNELS 3 Xrotation Yrotation Zrotation
									JOINT LeftArm
									{
										OFFSET 9.308998 -2.777710 0.208600
										CHANNELS 3 Xrotation Yrotation Zrotation
										JOINT LeftForeArm
										{
											OFFSET 29.972298 0.000000 0.000000
											CHANNELS 3 Xrotation Yrotation Zrotation
											JOINT LeftHand
											{
												OFFSET 26.026505 0.000000 0.000000
												CHANNELS 3 Xrotation Yrotation Zrotation
												End Site
												{
													OFFSET 0 0 0
												}
											}
										}
									}
								}
							}
						}
						JOINT RightShoulder_virtual
						{
							OFFSET 0.000000 0.000000 0.000000
							CHANNELS 3 Xrotation Yrotation Zrotation
							JOINT RightShoulder
							{
								OFFSET -7.570500 7.247704 -3.868750
								CHANNELS 3 Xrotation Yrotation Zrotation
								JOINT RightShoulder_split
								{
									OFFSET -7.570500 7.247704 -3.868750
									CHANNELS 3 Xrotation Yrotation Zrotation
									JOINT RightArm
									{
										OFFSET -9.308998 -2.777710 0.208500
										CHANNELS 3 Xrotation Yrotation Zrotation
										JOINT RightForeArm
										{
											OFFSET -29.972300 0.000000 0.000000
											CHANNELS 3 Xrotation Yrotation Zrotation
											JOINT RightHand
											{
												OFFSET -26.026505 0.000000 0.000000
												CHANNELS 3 Xrotation Yrotation Zrotation
												End Site
												{
													OFFSET 0 0 0
												}
											}
										}
									}
								}
							}
						}
					}
				}
			}
		}
	}
}
MOTION
Frames: 4
Frame Time: 0.03333333
-1.214863 9.103756 23.186283 0.000000 0.000000 0.000000 -87.893681 -2.884084 0.832989 -27.640988 17.942475 -7.108730 33.180875 -1.744638 -4.670980 2.216248 5.973967 11.347586 8.302017 -0.661801 2.610172 0.000000 0.000000 0.000000 -90.127058 -2.682986 -1.396472 -13.645076 -6.211678 -4.941358 11.611155 -2.514360 3.857887 15.776033 -1.557451 16.210450 -3.930792 -0.118682 0.137261 0.000000 0.000000 0.000000 -86.088811 -3.521194 -1.790849 3.597412 2.872972 -2.238084 -1.413239 1.051302 -0.275575 0.510699 1.041191 -0.436081 0.000000 0.000000 0.000000 -2.452840 0.484290 0.100101 2.430117 1.375107 0.183893 7.433058 1.515473 12.551606 0.000000 0.000000 0.000000 -2.992079 1.148400 0.036478 1.150657 -15.866558 -2.452754 -3.173009 0.224724 -4.084721 29.023349 0.759269 -71.016503 -178.831728 -39.644474 -178.509221 0.000000 0.000000 0.000000 -2.058424 0.830740 -0.861202 1.362724 2.542797 0.291339 1.164922 4.422319 0.138029 13.791465 5.460250 72.112352 -179.596204 46.957974 -179.071086 0.000000 0.000000 0.000000 
-1.211250 9.099293 23.206404 0.000000 0.000000 0.000000 -87.900553 -2.877419 0.844381 -27.662941 17.931048 -7.108941 33.249914 -1.744209 -4.696195 2.184528 5.940929 11.384033 8.298210 -0.664646 2.613002 0.000000 0.000000 0.000000 -90.127187 -2.667254 -1.374963 -13.658644 -6.213662 -4.966403 11.689914 -2.510274 3.871363 15.738462 -1.553129 16.232945 -3.869155 -0.118429 0.137194 0.000000 0.000000 0.000000 -86.098530 -3.514343 -1.778261 3.601669 2.864922 -2.234753 -1.415372 1.049982 -0.279462 0.518565 1.042288 -0.431676 0.000000 0.000000 0.000000 -2.458736 0.486815 0.099493 2.473077 1.382928 0.175653 7.479442 0.931626 12.628009 0.000000 0.000000 0.000000 -2.991606 1.147644 0.040578 1.154253 -15.875424 -2.441858 -3.172921 0.249343 -4.102012 29.012465 0.854683 -71.039254 -178.815186 -39.496805 -178.473362 0.000000 0.000000 0.000000 -2.075922 0.824108 -0.860129 1.363347 2.605251 0.283138 1.154254 4.406540 0.139006 13.712680 5.441487 72.164541 -179.594893 46.945062 -179.079869 0.000000 0.000000 0.000000 
-1.206423 9.094547 23.229254 0.000000 0.000000 0.000000 -87.905450 -2.865058 0.852046 -27.688781 17.933442 -7.106201 33.328584 -1.742773 -4.726685 2.142069 5.902872 11.429995 8.294044 -0.666929 2.617236 0.000000 0.000000 0.000000 -90.131975 -2.648878 -1.359779 -13.661890 -6.214614 -4.986497 11.750888 -2.502944 3.884828 15.704254 -1.541430 16.261369 -3.815261 -0.117861 0.136459 0.000000 0.000000 0.000000 -86.106938 -3.508173 -1.771128 3.610844 2.861896 -2.223536 -1.417420 1.051261 -0.281166 0.525724 1.038076 -0.435019 0.000000 0.000000 0.000000 -2.462099 0.492247 0.099032 2.503228 1.396627 0.173689 7.531323 0.452263 12.670570 0.000000 0.000000 0.000000 -2.989597 1.149780 0.046583 1.154038 -15.876667 -2.452925 -3.158138 0.268415 -4.108863 28.934157 0.935829 -71.041187 -178.801293 -39.379063 -178.444375 0.000000 0.000000 0.000000 -2.090259 0.820532 -0.859137 1.364843 2.650712 0.280666 1.142198 4.398112 0.143277 13.638774 5.449889 72.224838 -179.597734 46.958244 -179.079992 0.000000 0.000000 0.000000 
-1.199706 9.092319 23.255674 0.000000 0.000000 0.000000 -87.907383 -2.848935 0.858591 -27.715285 17.942798 -7.105244 33.406035 -1.743036 -4.757072 2.097419 5.858932 11.476703 8.290788 -0.668842 2.623135 0.000000 0.000000 0.000000 -90.137358 -2.630299 -1.349492 -13.651055 -6.212621 -5.004955 11.785713 -2.494187 3.897134 15.673647 -1.524067 16.296833 -3.772606 -0.117536 0.135902 0.000000 0.000000 0.000000 -86.113816 -3.502655 -1.765484 3.623604 2.863701 -2.210878 -1.418044 1.055693 -0.280709 0.523947 1.033130 -0.442481 0.000000 0.000000 0.000000 -2.461893 0.501001 0.098663 2.515384 1.404449 0.183837 7.579979 0.046317 12.697780 0.000000 0.000000 0.000000 -2.984956 1.155821 0.053223 1.151561 -15.875439 -2.484600 -3.134657 0.281328 -4.095390 28.829416 0.973146 -71.026632 -178.793179 -39.337641 -178.426685 0.000000 0.000000 0.000000 -2.098445 0.821165 -0.858329 1.366171 2.673885 0.280432 1.126966 4.391942 0.144084 13.572713 5.472986 72.279459 -179.604182 46.969346 -179.075348 0.000000 0.000000 0.000000 
